<svg xmlns="http://www.w3.org/2000/svg" width="16" height="17" viewBox="0 0 16 17" fill="none">
    <path d="M11.1048 16V13C11.213 12.0605 10.9338 11.1176 10.3275 10.375C12.6594 10.375 14.9913 8.875 14.9913 6.25C15.0535 5.3125 14.7814 4.39 14.214 3.625C14.4316 2.7625 14.4316 1.8625 14.214 1C14.214 1 13.4367 1 11.8821 2.125C9.83007 1.75 7.71583 1.75 5.66378 2.125C4.1092 1 3.33191 1 3.33191 1C3.09872 1.8625 3.09872 2.7625 3.33191 3.625C2.76594 4.38691 2.49124 5.31459 2.55461 6.25C2.55461 8.875 4.88649 10.375 7.21837 10.375C6.91522 10.7425 6.68981 11.1625 6.55767 11.6125C6.42553 12.0625 6.38666 12.535 6.44108 13M6.44108 13V16M6.44108 13C2.93549 14.5 2.55458 11.5 1 11.5" stroke="#1E1E1E" stroke-width="1.5" stroke-linecap="round" stroke-linejoin="round"/>
</svg>
